<svg width="4310" height="1591" viewBox="0 0 4310 1591" fill="none" xmlns="http://www.w3.org/2000/svg">
<g clip-path="url(#clip0_440_1094)">
<path d="M1912 1214.48C1912 1220.21 1905.29 1224.8 1896.84 1224.8C1887.22 1225.66 1880.52 1221.07 1880.52 1214.48C1880.52 1208.75 1887.22 1204.16 1895.67 1204.16C1904.42 1203.3 1912 1207.89 1912 1214.48ZM1821.34 1201.58C1819.3 1207.31 1825.13 1213.9 1833.88 1215.62C1841.45 1218.49 1850.2 1215.62 1851.95 1209.89C1853.7 1204.16 1848.16 1197.57 1839.41 1194.99C1831.84 1192.98 1823.38 1195.85 1821.34 1201.58ZM1950.18 1196.71C1941.73 1198.71 1935.9 1204.16 1936.77 1210.75C1937.65 1216.48 1945.23 1220.21 1953.97 1218.2C1962.43 1216.2 1968.26 1210.75 1967.38 1205.02C1966.51 1199.57 1958.64 1195.85 1950.18 1196.71ZM2141.99 98.3672C1737.68 98.3672 1428.4 400.181 1428.4 797.728C1428.4 1115.59 1631.87 1387.6 1922.49 1483.33C1959.8 1489.92 1972.92 1467.28 1972.92 1448.65C1972.92 1430.88 1972.05 1332.85 1972.05 1272.66C1972.05 1272.66 1768 1315.66 1725.15 1187.25C1725.15 1187.25 1691.92 1103.84 1644.11 1082.34C1644.11 1082.34 1577.36 1037.34 1648.77 1038.2C1648.77 1038.2 1721.36 1043.94 1761.29 1112.15C1825.13 1222.79 1932.11 1190.97 1973.8 1172.06C1980.5 1126.2 1999.45 1094.38 2020.44 1075.47C1857.49 1057.69 1693.08 1034.48 1693.08 758.747C1693.08 679.925 1715.24 640.371 1761.88 589.926C1754.3 571.295 1729.52 494.48 1769.45 395.309C1830.38 376.678 1970.59 472.697 1970.59 472.697C2028.89 456.646 2091.56 448.334 2153.65 448.334C2215.74 448.334 2278.41 456.646 2336.71 472.697C2336.71 472.697 2476.92 376.392 2537.85 395.309C2577.78 494.767 2553 571.295 2545.43 589.926C2592.06 640.658 2620.63 680.212 2620.63 758.747C2620.63 1035.34 2448.94 1057.41 2285.99 1075.47C2312.81 1098.11 2335.55 1141.1 2335.55 1208.46C2335.55 1305.05 2334.67 1424.57 2334.67 1448.08C2334.67 1466.71 2348.08 1489.35 2385.1 1482.76C2676.6 1387.6 2874.24 1115.59 2874.24 797.728C2874.24 400.181 2546.3 98.3672 2141.99 98.3672H2141.99ZM1711.74 1086.93C1707.95 1089.8 1708.82 1096.39 1713.78 1101.83C1718.44 1106.42 1725.15 1108.43 1728.94 1104.7C1732.73 1101.83 1731.85 1095.24 1726.9 1089.8C1722.23 1085.21 1715.53 1083.2 1711.74 1086.93ZM1680.26 1063.71C1678.22 1067.44 1681.13 1072.03 1686.96 1074.89C1691.62 1077.76 1697.45 1076.9 1699.49 1072.89C1701.54 1069.16 1698.62 1064.57 1692.79 1061.71C1686.96 1059.99 1682.3 1060.85 1680.26 1063.71ZM1774.7 1165.75C1770.04 1169.48 1771.79 1178.08 1778.49 1183.52C1785.2 1190.11 1793.65 1190.97 1797.44 1186.39C1801.23 1182.66 1799.48 1174.06 1793.65 1168.62C1787.24 1162.03 1778.49 1161.17 1774.7 1165.75ZM1741.47 1123.62C1736.81 1126.48 1736.81 1133.94 1741.47 1140.53C1746.13 1147.12 1754 1149.99 1757.79 1147.12C1762.46 1143.4 1762.46 1135.94 1757.79 1129.35C1753.71 1122.76 1746.13 1119.89 1741.47 1123.62Z" fill="url(#paint0_linear_440_1094)"/>
</g>
<defs>
<linearGradient id="paint0_linear_440_1094" x1="1428.4" y1="791.433" x2="2874.24" y2="791.433" gradientUnits="userSpaceOnUse">
<stop stop-color="#00DBDE"/>
<stop offset="1" stop-color="#FC00FF"/>
</linearGradient>
<clipPath id="clip0_440_1094">
<rect width="4309.09" height="1590.72" fill="white"/>
</clipPath>
</defs>
</svg>
