<svg width="430" height="430" viewBox="0 0 430 430" fill="none" xmlns="http://www.w3.org/2000/svg">
  <path fill-rule="evenodd" clip-rule="evenodd" d="M64.4333 109.766C62.9457 108.278 60.7876 107.679 58.7457 108.185C56.7038 108.692 55.0765 110.231 54.4568 112.241C45.6904 140.685 52.5612 172.941 75.0963 195.476C96.7069 217.087 127.258 224.292 154.813 217.116L290.056 352.36C306.035 368.339 331.94 368.346 347.917 352.37L349.369 350.918C365.346 334.941 365.338 309.036 349.359 293.057L214.115 157.813C221.292 130.258 214.087 99.7074 192.476 78.0968C169.941 55.5617 137.685 48.6909 109.241 57.4573C107.23 58.0769 105.691 59.7043 105.185 61.7462C104.678 63.7881 105.278 65.9462 106.765 67.4338L146.963 107.632C150.638 111.307 150.637 117.26 146.968 120.93L117.929 149.968C114.26 153.638 108.306 153.639 104.631 149.964L64.4333 109.766ZM83.5816 186.991C66.9428 170.352 60.2752 147.513 63.5991 125.902L96.146 158.449C104.504 166.807 118.056 166.812 126.415 158.454L155.453 129.415C163.812 121.056 163.807 107.504 155.449 99.1465L122.902 66.5996C144.512 63.2756 167.352 69.9433 183.991 86.582C203.26 105.851 209.156 133.436 201.648 157.798C200.993 159.922 201.567 162.235 203.139 163.807L340.874 301.542C352.17 312.838 352.171 331.145 340.884 342.432L339.432 343.884C328.145 355.171 309.838 355.17 298.542 343.874L160.807 206.139C159.235 204.567 156.922 203.993 154.797 204.648C130.436 212.156 102.85 206.26 83.5816 186.991ZM317.53 306.389C314.016 302.874 308.317 302.874 304.802 306.389C301.288 309.903 301.288 315.602 304.802 319.117L311.166 325.481C314.681 328.995 320.379 328.995 323.894 325.481C327.409 321.966 327.409 316.267 323.894 312.753L317.53 306.389Z" fill="url(#gradient)" />
  <defs>
    <linearGradient id="gradient" x1="0%" y1="0%" x2="100%" y2="100%">
      <stop offset="0%" style="stop-color:#5155ff;stop-opacity:1" />
      <stop offset="50%" style="stop-color:rgb(128 65 255);stop-opacity:1" />
      <stop offset="100%" style="stop-color:#a82fff;stop-opacity:1" />
    </linearGradient>
  </defs>
</svg>
